<svg width="71.83" height="23.55" xmlns="http://www.w3.org/2000/svg" version="1.1">
 <g>
  <title>Layer 1</title>
  <g stroke="null" id="surface1">
   <path stroke="null" d="m66.12997,0.03442l-60.35937,0c-0.22266,0 -0.4375,0 -0.66016,0c-0.18359,0.00383 -0.36328,0.00764 -0.55078,0.00764c-0.40234,0.00383 -0.80469,0.04205 -1.20313,0.10322c-0.39453,0.06881 -0.78125,0.19113 -1.14062,0.37081c-0.35547,0.17967 -0.68359,0.41285 -0.96875,0.69192c-0.28516,0.27524 -0.52734,0.60017 -0.70703,0.95187c-0.1836,0.35169 -0.3086,0.72631 -0.375,1.11624c-0.06641,0.38992 -0.10156,0.78366 -0.10938,1.17741c-0.0039,0.17967 -0.0039,0.35933 -0.00781,0.53901l0,13.57073c0.00391,0.18349 0.00391,0.35934 0.00781,0.54283c0.00781,0.39375 0.04297,0.78749 0.10938,1.17358c0.0664,0.38992 0.1914,0.76838 0.375,1.12006c0.17969,0.3517 0.42187,0.6728 0.70703,0.94804c0.28125,0.27906 0.60937,0.51225 0.96875,0.69192c0.35937,0.17968 0.74609,0.302 1.14062,0.37081c0.39844,0.06499 0.80079,0.09939 1.20313,0.10322c0.1875,0.00382 0.36719,0.00764 0.55078,0.00764c0.22266,0 0.4375,0 0.66016,0l60.35937,0c0.21485,0 0.4336,0 0.64844,0c0.18359,0 0.37109,-0.00383 0.55469,-0.00764c0.40234,-0.00383 0.80078,-0.03822 1.19922,-0.10322c0.39843,-0.06881 0.78515,-0.19113 1.14453,-0.37081c0.35937,-0.17967 0.6875,-0.41285 0.97265,-0.69192c0.28516,-0.27905 0.52344,-0.59634 0.70703,-0.94804c0.17969,-0.35169 0.30469,-0.73014 0.3711,-1.12006c0.0664,-0.3861 0.10547,-0.77983 0.11328,-1.17358c0,-0.18349 0,-0.35934 0,-0.54283c0.00391,-0.21025 0.00391,-0.42432 0.00391,-0.64222l0,-12.28629c0,-0.2179 0,-0.42815 -0.00391,-0.64222c0,-0.17968 0,-0.35934 0,-0.53901c-0.00781,-0.39375 -0.04688,-0.78749 -0.11328,-1.17741c-0.06641,-0.38992 -0.19141,-0.76455 -0.3711,-1.11624c-0.37109,-0.70721 -0.95703,-1.28063 -1.67968,-1.64378c-0.35938,-0.17968 -0.7461,-0.302 -1.14453,-0.37081c-0.39844,-0.06498 -0.79688,-0.09939 -1.19922,-0.10322c-0.1836,-0.00382 -0.3711,-0.00382 -0.55469,-0.00764c-0.21484,0 -0.43359,0 -0.64844,0zm0,0" fill-rule="nonzero" fill="rgb(65.098039%,65.098039%,65.098039%)" id="svg_1"/>
   <path stroke="null" d="m5.11435,23.00911c-0.1836,0 -0.35938,-0.00382 -0.54297,-0.00764c-0.375,-0.00383 -0.75,-0.03822 -1.1211,-0.09557c-0.34375,-0.05734 -0.67968,-0.1682 -0.99218,-0.32111c-0.3125,-0.15291 -0.59375,-0.35551 -0.83985,-0.59635c-0.25,-0.24083 -0.45312,-0.51607 -0.61328,-0.82189c-0.15625,-0.30582 -0.26562,-0.63458 -0.32422,-0.97098c-0.0625,-0.36698 -0.09375,-0.73397 -0.10156,-1.10095c-0.00391,-0.12614 -0.00781,-0.53901 -0.00781,-0.53901l0,-13.56309c0,0 0.0039,-0.40522 0.00781,-0.52372c0.00781,-0.37081 0.03906,-0.73779 0.10156,-1.10095c0.05469,-0.34023 0.16797,-0.66898 0.32422,-0.9748c0.15625,-0.30582 0.36328,-0.58106 0.60938,-0.8219c0.24609,-0.24083 0.53125,-0.44343 0.84375,-0.60017c0.3125,-0.15291 0.64453,-0.26377 0.99218,-0.32111c0.3711,-0.05735 0.7461,-0.09175 1.125,-0.09557l0.53907,-0.00764l61.66015,0l0.55078,0.00764c0.3711,0.00383 0.7461,0.03822 1.11329,0.09557c0.34765,0.05734 0.6875,0.1682 1.0039,0.32111c0.6211,0.31729 1.12891,0.81424 1.44922,1.42207c0.15625,0.30582 0.26172,0.63075 0.32031,0.96715c0.0625,0.36698 0.09766,0.73778 0.10547,1.10859c0,0.16821 0,0.34787 0,0.52372c0.00391,0.22172 0.00391,0.42815 0.00391,0.64222l0,12.28629c0,0.21407 0,0.42433 -0.00391,0.63458c0,0.18732 0,0.36317 -0.0039,0.54283c-0.00391,0.36698 -0.03907,0.73014 -0.10157,1.08948c-0.05468,0.34023 -0.16406,0.6728 -0.32422,0.98245c-0.15625,0.29817 -0.36328,0.5734 -0.60937,0.81042c-0.24219,0.24466 -0.52734,0.44726 -0.83984,0.60017c-0.3125,0.15674 -0.65235,0.26759 -1,0.32493c-0.3711,0.05735 -0.7461,0.09175 -1.1211,0.09557c-0.17578,0.00383 -0.35937,0.00764 -0.53906,0.00764l-61.66406,0zm0,0" fill-rule="nonzero" fill="rgb(0%,0%,0%)" id="svg_2"/>
   <path stroke="null" d="m14.90732,11.95374c0.01562,-0.99392 0.54687,-1.91519 1.41406,-2.43891c-0.54688,-0.76455 -1.4336,-1.23475 -2.39453,-1.26533c-1.00782,-0.10322 -1.98438,0.5887 -2.4961,0.5887c-0.52343,0 -1.3125,-0.57723 -2.16406,-0.56193c-1.12109,0.0344 -2.14062,0.64604 -2.68359,1.60172c-1.16016,1.9649 -0.29688,4.85489 0.8164,6.44515c0.55469,0.77984 1.20703,1.64761 2.05469,1.61703c0.83203,-0.03441 1.14453,-0.51989 2.14844,-0.51989c0.99609,0 1.28515,0.51989 2.15625,0.50077c0.89062,-0.01529 1.45312,-0.78366 1.99219,-1.56732c0.39843,-0.55429 0.70703,-1.16593 0.91015,-1.8158c-1.0625,-0.43962 -1.75,-1.45646 -1.7539,-2.58417zm0,0" fill-rule="nonzero" fill="rgb(100%,100%,100%)" id="svg_3"/>
   <path stroke="null" d="m13.2706,7.20589c0.48828,-0.57341 0.72656,-1.30738 0.66797,-2.05282c-0.74219,0.07645 -1.42969,0.42432 -1.92579,0.9748c-0.48437,0.54283 -0.73437,1.25386 -0.68359,1.97636c0.75391,0.00765 1.46875,-0.32493 1.94141,-0.89834zm0,0" fill-rule="nonzero" fill="rgb(100%,100%,100%)" id="svg_4"/>
   <path stroke="null" d="m25.43075,15.97144l-2.83984,0l-0.68359,1.96871l-1.20313,0l2.69141,-7.28997l1.25,0l2.6875,7.28997l-1.22266,0l-0.67969,-1.96871zm-2.54687,-0.90982l2.25,0l-1.10938,-3.19964l-0.03125,0l-1.10937,3.19964zm0,0" fill-rule="nonzero" fill="rgb(100%,100%,100%)" id="svg_5"/>
   <path stroke="null" d="m33.1456,15.28334c0,1.65143 -0.90625,2.71415 -2.26953,2.71415c-0.70313,0.03441 -1.36719,-0.32493 -1.70704,-0.93275l-0.02734,0l0,2.63387l-1.11328,0l0,-7.07207l1.07812,0l0,0.88305l0.01954,0c0.35546,-0.60017 1.01953,-0.96333 1.73046,-0.9404c1.37891,0 2.28907,1.06655 2.28907,2.71415zm-1.14844,0c0,-1.07801 -0.56641,-1.78522 -1.43359,-1.78522c-0.85157,0 -1.42579,0.7225 -1.42579,1.78522c0,1.07037 0.57422,1.78905 1.42579,1.78905c0.86718,0 1.43359,-0.70338 1.43359,-1.78905zm0,0" fill-rule="nonzero" fill="rgb(100%,100%,100%)" id="svg_6"/>
   <path stroke="null" d="m39.12216,15.28334c0,1.65143 -0.90234,2.71415 -2.26563,2.71415c-0.70703,0.03441 -1.37109,-0.32493 -1.71093,-0.93275l-0.02344,0l0,2.63387l-1.11719,0l0,-7.07207l1.07813,0l0,0.88305l0.02343,0c0.35547,-0.60017 1.01954,-0.96333 1.73047,-0.9404c1.375,0 2.28516,1.06655 2.28516,2.71415zm-1.14453,0c0,-1.07801 -0.57031,-1.78522 -1.4375,-1.78522c-0.85156,0 -1.42578,0.7225 -1.42578,1.78522c0,1.07037 0.57422,1.78905 1.42578,1.78905c0.86719,0 1.4375,-0.70338 1.4375,-1.78905zm0,0" fill-rule="nonzero" fill="rgb(100%,100%,100%)" id="svg_7"/>
   <path stroke="null" d="m43.07528,15.91028c0.08204,0.7225 0.80079,1.19651 1.78125,1.19651c0.9375,0 1.61329,-0.47402 1.61329,-1.12771c0,-0.56577 -0.40625,-0.90217 -1.3711,-1.13536l-0.96484,-0.22936c-1.3711,-0.32112 -2.00391,-0.94804 -2.00391,-1.96489c0,-1.25769 1.1211,-2.12162 2.71094,-2.12162c1.57422,0 2.65234,0.86394 2.6875,2.12162l-1.125,0c-0.06641,-0.72632 -0.67969,-1.16594 -1.57813,-1.16594c-0.89843,0 -1.51562,0.44343 -1.51562,1.08948c0,0.51607 0.39453,0.82189 1.35547,1.05126l0.82031,0.19878c1.52734,0.3517 2.16406,0.95569 2.16406,2.02224c0,1.3609 -1.10937,2.2172 -2.875,2.2172c-1.65234,0 -2.76953,-0.83337 -2.83984,-2.15221l1.14062,0zm0,0" fill-rule="nonzero" fill="rgb(100%,100%,100%)" id="svg_8"/>
   <path stroke="null" d="m50.05575,11.36503l0,1.2615l1.03125,0l0,0.86394l-1.03125,0l0,2.92822c0,0.4549 0.20703,0.66898 0.66016,0.66898c0.125,-0.00382 0.24609,-0.01147 0.36719,-0.02676l0,0.86011c-0.20313,0.03823 -0.41016,0.05352 -0.61719,0.0497c-1.10156,0 -1.53125,-0.40522 -1.53125,-1.43354l0,-3.04673l-0.78906,0l0,-0.86394l0.78906,0l0,-1.2615l1.12109,0zm0,0" fill-rule="nonzero" fill="rgb(100%,100%,100%)" id="svg_9"/>
   <path stroke="null" d="m51.68857,15.28334c0,-1.67436 1.0039,-2.72561 2.57421,-2.72561c1.57422,0 2.57813,1.05125 2.57813,2.72561c0,1.67819 -0.99609,2.72179 -2.57813,2.72179c-1.57812,0 -2.57421,-1.0436 -2.57421,-2.72179zm4.01562,0c0,-1.14682 -0.53906,-1.82345 -1.44141,-1.82345c-0.90234,0 -1.4414,0.68045 -1.4414,1.82345c0,1.15064 0.53906,1.82345 1.4414,1.82345c0.90235,0 1.44141,-0.6728 1.44141,-1.82345zm0,0" fill-rule="nonzero" fill="rgb(100%,100%,100%)" id="svg_10"/>
   <path stroke="null" d="m57.75888,12.62654l1.0625,0l0,0.90216l0.02734,0c0.14844,-0.58106 0.69531,-0.98244 1.3086,-0.95951c0.125,0 0.2539,0.01147 0.3789,0.04205l0,1.02067c-0.16015,-0.04969 -0.33203,-0.07263 -0.5,-0.06881c-0.32812,-0.01147 -0.64453,0.11468 -0.86719,0.35169c-0.22265,0.2332 -0.33203,0.5543 -0.29296,0.87159l0,3.15377l-1.11719,0l0,-5.31362zm0,0" fill-rule="nonzero" fill="rgb(100%,100%,100%)" id="svg_11"/>
   <path stroke="null" d="m65.67685,16.38048c-0.14844,0.96333 -1.10938,1.62466 -2.33594,1.62466c-1.58203,0 -2.5625,-1.03596 -2.5625,-2.69503c0,-1.67055 0.98437,-2.75238 2.51562,-2.75238c1.5,0 2.44532,1.01302 2.44532,2.6224l0,0.37464l-3.83594,0l0,0.06498c-0.03516,0.39757 0.10547,0.78749 0.38281,1.07801c0.28125,0.28671 0.67188,0.44344 1.07813,0.42815c0.54297,0.0497 1.05078,-0.2523 1.2539,-0.74543l1.0586,0zm-3.76953,-1.58644l2.71875,0c0.01953,-0.35551 -0.11329,-0.70338 -0.36719,-0.95951c-0.25,-0.25613 -0.60156,-0.39757 -0.96485,-0.38991c-0.36718,-0.00383 -0.71875,0.13761 -0.98046,0.38991c-0.25782,0.25613 -0.40625,0.60017 -0.40625,0.95951zm0,0" fill-rule="nonzero" fill="rgb(100%,100%,100%)" id="svg_12"/>
   <path stroke="null" d="m22.74325,5.16072c0.47266,-0.0344 0.9375,0.14144 1.26563,0.48167c0.32422,0.3364 0.48047,0.79896 0.41797,1.25769c0,1.12006 -0.61719,1.7661 -1.6836,1.7661l-1.29297,0l0,-3.50546l1.29297,0zm-0.73828,3.0085l0.67578,0c0.33985,0.01911 0.66797,-0.11086 0.89844,-0.35551c0.22656,-0.24466 0.33203,-0.57723 0.28125,-0.90599c0.04688,-0.32493 -0.05859,-0.65369 -0.28516,-0.89835c-0.23046,-0.24083 -0.55859,-0.37081 -0.89453,-0.3517l-0.67578,0l0,2.51155zm0,0" fill-rule="nonzero" fill="rgb(100%,100%,100%)" id="svg_13"/>
   <path stroke="null" d="m25.05575,7.33968c-0.04687,-0.47402 0.1875,-0.93274 0.60157,-1.18123c0.41015,-0.2523 0.93359,-0.2523 1.34765,0c0.41406,0.24848 0.64453,0.70721 0.60156,1.18123c0.04688,0.47785 -0.1875,0.93658 -0.60156,1.18888c-0.41406,0.24847 -0.9375,0.24847 -1.35156,0c-0.41406,-0.2523 -0.64453,-0.71103 -0.59766,-1.18888zm2,0c0,-0.56959 -0.26172,-0.90599 -0.72265,-0.90599c-0.46485,0 -0.72657,0.3364 -0.72657,0.90599c0,0.58106 0.26172,0.91364 0.72657,0.91364c0.46093,0 0.72265,-0.3364 0.72265,-0.91364zm0,0" fill-rule="nonzero" fill="rgb(100%,100%,100%)" id="svg_14"/>
   <path stroke="null" d="m30.99325,8.66617l-0.55468,0l-0.5586,-1.94959l-0.04297,0l-0.55468,1.94959l-0.54688,0l-0.74609,-2.64533l0.54297,0l0.48046,2.01841l0.04297,0l0.55469,-2.01841l0.51172,0l0.55469,2.01841l0.04297,0l0.48046,-2.01841l0.53516,0l-0.74219,2.64533zm0,0" fill-rule="nonzero" fill="rgb(100%,100%,100%)" id="svg_15"/>
   <path stroke="null" d="m32.36044,6.02084l0.51172,0l0,0.4205l0.04297,0c0.13672,-0.30965 0.46094,-0.50078 0.80469,-0.4702c0.26562,-0.02294 0.52734,0.08028 0.70703,0.27141c0.18359,0.19113 0.26562,0.45109 0.22656,0.71103l0,1.71259l-0.53125,0l0,-1.58261c0,-0.42433 -0.1875,-0.63458 -0.58203,-0.63458c-0.1836,-0.00764 -0.35938,0.06116 -0.48047,0.18731c-0.125,0.12998 -0.18359,0.30582 -0.16797,0.48167l0,1.54821l-0.53125,0l0,-2.64533zm0,0" fill-rule="nonzero" fill="rgb(100%,100%,100%)" id="svg_16"/>
   <path stroke="null" d="m35.50497,4.98869l0.53125,0l0,3.67748l-0.53125,0l0,-3.67748zm0,0" fill-rule="nonzero" fill="rgb(100%,100%,100%)" id="svg_17"/>
   <path stroke="null" d="m36.77841,7.33968c-0.04688,-0.47402 0.1875,-0.93274 0.59766,-1.18123c0.41406,-0.2523 0.9375,-0.2523 1.35156,0c0.41406,0.24848 0.64453,0.70721 0.59765,1.18123c0.05079,0.47785 -0.18359,0.93658 -0.59765,1.18888c-0.41406,0.24847 -0.9375,0.24847 -1.35156,0c-0.41407,-0.2523 -0.64454,-0.71103 -0.59766,-1.18888zm2,0c0,-0.56959 -0.26172,-0.90599 -0.72656,-0.90599c-0.46094,0 -0.72266,0.3364 -0.72266,0.90599c0,0.58106 0.26172,0.91364 0.72266,0.91364c0.46484,0 0.72656,-0.3364 0.72656,-0.91364zm0,0" fill-rule="nonzero" fill="rgb(100%,100%,100%)" id="svg_18"/>
   <path stroke="null" d="m39.88778,7.91692c0,-0.47784 0.36329,-0.74926 1.00391,-0.78749l0.73438,-0.04205l0,-0.22936c0,-0.27906 -0.19141,-0.4358 -0.55469,-0.4358c-0.29688,0 -0.50391,0.10704 -0.5625,0.29436l-0.51563,0c0.05469,-0.45491 0.49219,-0.74544 1.10157,-0.74544c0.67968,0 1.0625,0.32875 1.0625,0.88688l0,1.80815l-0.51563,0l0,-0.37463l-0.04297,0c-0.17187,0.27141 -0.48437,0.43197 -0.80859,0.41668c-0.23047,0.02294 -0.46094,-0.04969 -0.62891,-0.19878c-0.17187,-0.15291 -0.27344,-0.36698 -0.27344,-0.59253zm1.73829,-0.22554l0,-0.22172l-0.66016,0.04205c-0.37109,0.02293 -0.54297,0.14908 -0.54297,0.38227c0,0.23701 0.21094,0.37463 0.50391,0.37463c0.17187,0.01911 0.34375,-0.0344 0.47265,-0.14526c0.13282,-0.10704 0.21485,-0.26378 0.22657,-0.43197zm0,0" fill-rule="nonzero" fill="rgb(100%,100%,100%)" id="svg_19"/>
   <path stroke="null" d="m42.85653,7.33968c0,-0.83336 0.4375,-1.36472 1.1211,-1.36472c0.34375,-0.01529 0.66797,0.16821 0.82812,0.46638l0.03907,0l0,-1.45265l0.53515,0l0,3.67748l-0.51172,0l0,-0.42049l-0.04297,0c-0.17187,0.29817 -0.5,0.47402 -0.84765,0.46255c-0.6875,0 -1.1211,-0.52754 -1.1211,-1.36854zm0.55079,0c0,0.56194 0.26953,0.89835 0.72265,0.89835c0.44922,0 0.72656,-0.34022 0.72656,-0.89452c0,-0.55048 -0.28125,-0.89835 -0.72656,-0.89835c-0.44922,0 -0.72265,0.34023 -0.72265,0.89452zm0,0" fill-rule="nonzero" fill="rgb(100%,100%,100%)" id="svg_20"/>
   <path stroke="null" d="m47.587,7.33968c-0.04687,-0.47402 0.1836,-0.93274 0.59766,-1.18123c0.41406,-0.2523 0.9375,-0.2523 1.35156,0c0.41016,0.24848 0.64453,0.70721 0.59766,1.18123c0.04687,0.47785 -0.1836,0.93658 -0.59766,1.18888c-0.41406,0.24847 -0.9375,0.24847 -1.35156,0c-0.41406,-0.2523 -0.64453,-0.71103 -0.59766,-1.18888zm2,0c0,-0.56959 -0.26562,-0.90599 -0.72656,-0.90599c-0.46484,0 -0.72266,0.3364 -0.72266,0.90599c0,0.58106 0.25782,0.91364 0.72266,0.91364c0.46094,0 0.72656,-0.3364 0.72656,-0.91364zm0,0" fill-rule="nonzero" fill="rgb(100%,100%,100%)" id="svg_21"/>
   <path stroke="null" d="m50.84872,6.02084l0.51563,0l0,0.4205l0.03906,0c0.13672,-0.30965 0.46094,-0.50078 0.80469,-0.4702c0.26562,-0.02294 0.52734,0.08028 0.71093,0.27141c0.17969,0.19113 0.26563,0.45109 0.22657,0.71103l0,1.71259l-0.53516,0l0,-1.58261c0,-0.42433 -0.1875,-0.63458 -0.58203,-0.63458c-0.17969,-0.00764 -0.35547,0.06116 -0.48047,0.18731c-0.125,0.12998 -0.18359,0.30582 -0.16406,0.48167l0,1.54821l-0.53516,0l0,-2.64533zm0,0" fill-rule="nonzero" fill="rgb(100%,100%,100%)" id="svg_22"/>
   <path stroke="null" d="m56.15732,5.36332l0,0.66899l0.58593,0l0,0.43962l-0.58593,0l0,1.36089c0,0.27524 0.11718,0.39757 0.38281,0.39757c0.0664,0 0.13672,-0.00383 0.20312,-0.01147l0,0.43197c-0.09765,0.01911 -0.19531,0.02676 -0.28906,0.02676c-0.59375,0 -0.83203,-0.2026 -0.83203,-0.71103l0,-1.49469l-0.42969,0l0,-0.43962l0.42969,0l0,-0.66899l0.53516,0zm0,0" fill-rule="nonzero" fill="rgb(100%,100%,100%)" id="svg_23"/>
   <path stroke="null" d="m57.46982,4.98869l0.53125,0l0,1.45646l0.03906,0c0.14844,-0.31346 0.47656,-0.50078 0.82422,-0.47402c0.26562,-0.0153 0.52343,0.08792 0.70312,0.27905c0.17969,0.19114 0.26172,0.45109 0.22656,0.70721l0,1.70876l-0.53125,0l0,-1.57879c0,-0.42432 -0.20312,-0.63839 -0.57812,-0.63839c-0.1875,-0.0153 -0.36719,0.05352 -0.5,0.17967c-0.13281,0.12997 -0.19531,0.30965 -0.17969,0.49314l0,1.54438l-0.53515,0l0,-3.67748zm0,0" fill-rule="nonzero" fill="rgb(100%,100%,100%)" id="svg_24"/>
   <path stroke="null" d="m62.90341,7.95132c-0.14844,0.49696 -0.64063,0.8219 -1.16797,0.76455c-0.36328,0.00765 -0.70703,-0.13761 -0.94922,-0.40138c-0.23828,-0.25995 -0.34765,-0.61547 -0.30078,-0.96334c-0.04687,-0.35169 0.0625,-0.70338 0.30078,-0.97097c0.23828,-0.26378 0.58594,-0.41286 0.94531,-0.40903c0.75,0 1.20704,0.50078 1.20704,1.33031l0,0.18349l-1.91016,0l0,0.03058c-0.01563,0.19496 0.05078,0.38992 0.1875,0.53136c0.14062,0.14527 0.33203,0.22554 0.53125,0.22554c0.26172,0.03058 0.51562,-0.09557 0.64453,-0.32112l0.51172,0zm-1.875,-0.85247l1.36719,0c0.01172,-0.17967 -0.05469,-0.35551 -0.17969,-0.48548c-0.125,-0.12998 -0.30469,-0.2026 -0.48828,-0.19879c-0.1836,-0.00382 -0.36328,0.06881 -0.4961,0.19879c-0.13281,0.12614 -0.20312,0.30199 -0.20312,0.48548zm0,0" fill-rule="nonzero" fill="rgb(100%,100%,100%)" id="svg_25"/>
  </g>
 </g>

</svg>