<svg width="75.05" height="21.7" xmlns="http://www.w3.org/2000/svg" version="1.1">
 <g>
  <title>Layer 1</title>
  <g id="surface1">
   <path id="svg_1" fill="rgb(0%,0%,0%)" fill-rule="nonzero" d="m72.65555,21.81712l-70.3125,0c-1.28906,0 -2.34375,-0.98437 -2.34375,-2.1875l0,-17.5c0,-1.20312 1.05469,-2.1875 2.34375,-2.1875l70.3125,0c1.28906,0 2.34375,0.98438 2.34375,2.1875l0,17.5c0,1.20313 -1.05469,2.1875 -2.34375,2.1875zm0,0"/>
   <path id="svg_2" fill="rgb(100%,100%,100%)" fill-rule="nonzero" d="m10.66336,15.96556l-5.27343,-0.71094l0,-4.15625l5.27343,0l0,4.86719zm0,-5.25l-5.27343,0l0,-3.9375l5.27343,-0.71094l0,4.64844zm7.20703,6.17969l-6.79687,-0.92969l0,-4.86719l6.79687,0l0,5.79688zm0,-6.17969l-6.79687,0l0,-4.64844l6.79687,-0.92969l0,5.57813zm0,0"/>
   <path id="svg_3" fill="rgb(100%,100%,100%)" fill-rule="nonzero" d="m26.95243,8.25462c-0.23438,0.10938 -0.76172,0.21875 -1.34766,0.21875c-0.64453,0 -1.23047,-0.16406 -1.64063,-0.54687c-0.35156,-0.32813 -0.58593,-0.875 -0.58593,-1.53125c0,-1.20313 0.8789,-2.13282 2.34375,-2.13282c0.52734,0 0.8789,0.10938 1.11328,0.16407l-0.11719,0.4375c-0.23437,-0.10938 -0.52734,-0.16407 -0.9375,-0.16407c-1.05469,0 -1.75781,0.60157 -1.75781,1.64063c0,1.03906 0.64453,1.64062 1.69922,1.64062c0.35156,0 0.64453,-0.05468 0.76172,-0.10937l0,-1.20313l-0.87891,0l0,-0.4375l1.40625,0l0,2.02344l-0.05859,0zm0,0"/>
   <path id="svg_4" fill="rgb(100%,100%,100%)" fill-rule="nonzero" d="m28.1243,7.0515c0,0.71093 0.52734,1.03906 1.05469,1.03906c0.41015,0 0.64453,-0.05469 0.8789,-0.16406l0.11719,0.38281c-0.17578,0.10937 -0.52734,0.16406 -1.05469,0.16406c-0.9375,0 -1.52343,-0.60156 -1.52343,-1.47656c0,-0.875 0.52734,-1.58594 1.46484,-1.58594c0.99609,0 1.28906,0.82031 1.28906,1.36719c0,0.10937 0,0.21875 0,0.27344l-2.22656,0zm1.69922,-0.38282c0,-0.32812 -0.17578,-0.875 -0.76172,-0.875c-0.58594,0 -0.82031,0.49219 -0.87891,0.875l1.64063,0zm0,0"/>
   <path id="svg_5" fill="rgb(100%,100%,100%)" fill-rule="nonzero" d="m31.75711,4.64525l0,0.82031l0.82032,0l0,0.38281l-0.82032,0l0,1.58594c0,0.38281 0.11719,0.54687 0.41016,0.54687c0.17578,0 0.23437,0 0.35156,-0.05468l0,0.38281c-0.11719,0.05469 -0.29297,0.05469 -0.52734,0.05469c-0.29297,0 -0.46875,-0.05469 -0.58594,-0.21875c-0.17578,-0.16407 -0.23437,-0.4375 -0.23437,-0.76563l0,-1.58594l-0.46875,0l0,-0.38281l0.46875,0l0,-0.71094l0.58593,-0.05468zm0,0"/>
   <path id="svg_6" fill="rgb(100%,100%,100%)" fill-rule="nonzero" d="m35.21414,4.64525c0,0.16406 -0.11718,0.32812 -0.35156,0.32812c-0.17578,0 -0.35156,-0.16406 -0.35156,-0.32812c0,-0.16407 0.17578,-0.32813 0.35156,-0.32813c0.17578,0 0.35156,0.16406 0.35156,0.32813zm-0.64453,3.77343l0,-2.95312l0.58594,0l0,2.95312l-0.58594,0zm0,0"/>
   <path id="svg_7" fill="rgb(100%,100%,100%)" fill-rule="nonzero" d="m36.73758,4.64525l0,0.82031l0.82031,0l0,0.38281l-0.82031,0l0,1.58594c0,0.38281 0.11719,0.54687 0.41016,0.54687c0.17578,0 0.23437,0 0.35156,-0.05468l0,0.38281c-0.11719,0.05469 -0.29297,0.05469 -0.52734,0.05469c-0.29297,0 -0.46875,-0.05469 -0.58594,-0.21875c-0.17578,-0.16407 -0.23438,-0.4375 -0.23438,-0.76563l0,-1.58594l-0.46875,0l0,-0.38281l0.46875,0l0,-0.71094l0.58594,-0.05468zm0,0"/>
   <path id="svg_8" fill="rgb(100%,100%,100%)" fill-rule="nonzero" d="m42.36258,6.94212c0,1.09375 -0.82031,1.58594 -1.58203,1.58594c-0.82031,0 -1.52344,-0.60156 -1.52344,-1.53125c0,-0.98438 0.70313,-1.58594 1.52344,-1.58594c0.99609,0 1.58203,0.60156 1.58203,1.53125zm-2.46094,0c0,0.65625 0.41016,1.14844 0.9375,1.14844c0.52735,0 0.9375,-0.49219 0.9375,-1.14844c0,-0.49219 -0.29296,-1.14844 -0.9375,-1.14844c-0.64453,0 -0.9375,0.60157 -0.9375,1.14844zm0,0"/>
   <path id="svg_9" fill="rgb(100%,100%,100%)" fill-rule="nonzero" d="m43.06571,6.28587c0,-0.32812 0,-0.54687 0,-0.82031l0.52734,0l0.05859,0.49219c0.17579,-0.27344 0.52735,-0.54688 1.05469,-0.54688c0.41016,0 1.11328,0.21875 1.11328,1.25781l0,1.75l-0.58593,0l0,-1.69531c0,-0.49219 -0.17579,-0.875 -0.70313,-0.875c-0.35156,0 -0.64453,0.27344 -0.76172,0.54688c0,0.05468 -0.05859,0.16406 -0.05859,0.27343l0,1.75l-0.58594,0l0,-2.13281l-0.05859,0zm0,0"/>
   <path id="svg_10" fill="rgb(100%,100%,100%)" fill-rule="nonzero" d="m24.90164,17.27806l-1.58203,-5.96094l0.87891,0l0.76172,3.00781c0.17578,0.76563 0.35156,1.47657 0.46875,2.07813c0.11719,-0.60156 0.29297,-1.3125 0.52734,-2.07813l0.82031,-3.00781l0.87891,0l0.76172,3.00781c0.17578,0.71094 0.35156,1.42188 0.46875,2.02344c0.11719,-0.65625 0.29297,-1.3125 0.52734,-2.07812l0.82032,-3.00782l0.82031,0l-1.81641,5.96094l-0.8789,0l-0.82032,-3.11719c-0.17578,-0.76562 -0.35156,-1.36718 -0.41015,-1.96875c-0.11719,0.60157 -0.23438,1.14844 -0.46875,1.96875l-0.87891,3.11719l-0.87891,0l0,0.05469zm0,0"/>
   <path id="svg_11" fill="rgb(100%,100%,100%)" fill-rule="nonzero" d="m32.51883,11.75462c0,0.27344 -0.17578,0.49219 -0.52734,0.49219c-0.29297,0 -0.52735,-0.21875 -0.52735,-0.49219c0,-0.27344 0.23438,-0.49219 0.52735,-0.49219c0.35156,0.05469 0.52734,0.21875 0.52734,0.49219zm-0.9375,5.52344l0,-4.26563l0.82031,0l0,4.26563l-0.82031,0zm0,0"/>
   <path id="svg_12" fill="rgb(100%,100%,100%)" fill-rule="nonzero" d="m33.45633,14.16087c0,-0.4375 0,-0.82031 -0.05859,-1.14844l0.76172,0l0.05859,0.71094c0.23438,-0.38281 0.76172,-0.82031 1.52344,-0.82031c0.64453,0 1.58203,0.32812 1.58203,1.80469l0,2.57031l-0.82031,0l0,-2.46094c0,-0.71094 -0.29297,-1.25781 -1.05469,-1.25781c-0.52734,0 -0.99609,0.38281 -1.11328,0.82031c-0.0586,0.10938 -0.0586,0.21875 -0.0586,0.38281l0,2.57032l-0.82031,0l0,-3.17188zm0,0"/>
   <path id="svg_13" fill="rgb(100%,100%,100%)" fill-rule="nonzero" d="m42.53836,10.989l0,5.19531c0,0.38281 0,0.82031 0.0586,1.09375l-0.76172,0l-0.0586,-0.76563c-0.23437,0.49219 -0.82031,0.82032 -1.52343,0.82032c-1.11328,0 -1.9336,-0.875 -1.9336,-2.1875c0,-1.42188 0.9375,-2.29688 2.05078,-2.29688c0.70313,0 1.17188,0.32813 1.34766,0.65625l0,-2.57031l0.82031,0l0,0.05469zm-0.82031,3.71875c0,-0.10938 0,-0.21875 -0.05859,-0.32813c-0.11719,-0.49219 -0.58594,-0.875 -1.17188,-0.875c-0.8789,0 -1.34765,0.71094 -1.34765,1.64063c0,0.875 0.46875,1.58593 1.34765,1.58593c0.52735,0 1.05469,-0.32812 1.23047,-0.92968c0,-0.10938 0.05859,-0.21875 0.05859,-0.32813l0,-0.76562l-0.05859,0zm0,0"/>
   <path id="svg_14" fill="rgb(100%,100%,100%)" fill-rule="nonzero" d="m47.75321,15.09056c0,1.58594 -1.17188,2.29687 -2.28516,2.29687c-1.23047,0 -2.16797,-0.875 -2.16797,-2.1875c0,-1.42187 0.9961,-2.29687 2.28516,-2.29687c1.28906,0 2.16797,0.875 2.16797,2.1875zm-3.57422,0.05469c0,0.92968 0.58594,1.64062 1.40625,1.64062c0.76172,0 1.40625,-0.71094 1.40625,-1.64062c0,-0.71094 -0.41016,-1.64063 -1.34766,-1.64063c-1.05469,-0.05469 -1.46484,0.82031 -1.46484,1.64063zm0,0"/>
   <path id="svg_15" fill="rgb(100%,100%,100%)" fill-rule="nonzero" d="m48.80789,12.95775l0.58594,2.1875c0.11719,0.49218 0.23438,0.92968 0.35156,1.36718c0.11719,-0.4375 0.23438,-0.875 0.41016,-1.36718l0.76172,-2.1875l0.70312,0l0.70313,2.13281c0.17578,0.49219 0.29297,0.98437 0.41016,1.42187c0.05859,-0.4375 0.17578,-0.875 0.35156,-1.36718l0.64453,-2.13282l0.82031,0l-1.46484,4.26563l-0.76172,0l-0.70313,-2.02344c-0.17578,-0.49219 -0.29296,-0.875 -0.41015,-1.42187c-0.11719,0.49218 -0.23438,0.92968 -0.41016,1.42187l-0.76172,2.02344l-0.70312,0l-1.34766,-4.26563l0.82031,0l0,-0.05468zm0,0"/>
   <path id="svg_16" fill="rgb(100%,100%,100%)" fill-rule="nonzero" d="m55.19461,16.45775c0.23438,0.16406 0.70313,0.32812 1.11328,0.32812c0.58594,0 0.87891,-0.27344 0.87891,-0.65625c0,-0.38281 -0.23437,-0.60156 -0.82031,-0.76562c-0.82031,-0.27344 -1.23047,-0.71094 -1.23047,-1.20313c0,-0.71094 0.58594,-1.25781 1.58203,-1.25781c0.46875,0 0.87891,0.10937 1.11328,0.27344l-0.23437,0.54687c-0.17578,-0.10937 -0.52735,-0.27344 -0.9375,-0.27344c-0.46875,0 -0.76172,0.27344 -0.76172,0.60157c0,0.32812 0.29297,0.49218 0.8789,0.71093c0.76172,0.27344 1.17188,0.65625 1.17188,1.3125c0,0.76563 -0.64453,1.25782 -1.69922,1.25782c-0.52734,0 -0.9375,-0.10938 -1.28906,-0.27344l0.23437,-0.60156zm0,0"/>
   <path id="svg_17" fill="rgb(100%,100%,100%)" fill-rule="nonzero" d="m61.81571,12.24681l-1.05469,0.54687l-0.17578,-0.60156l1.34765,-0.65625l0.70313,0l0,5.74219l-0.82031,0l0,-5.03125zm0,0"/>
   <path id="svg_18" fill="rgb(100%,100%,100%)" fill-rule="nonzero" d="m68.37821,14.32493c0,1.96875 -0.76172,3.00782 -2.10938,3.00782c-1.17187,0 -1.99219,-1.03907 -2.05078,-2.95313c0,-1.91406 0.87891,-3.00781 2.10938,-3.00781c1.34765,0.05469 2.05078,1.14844 2.05078,2.95312zm-3.33985,0.10938c0,1.47656 0.46875,2.35156 1.23047,2.35156c0.82031,0 1.23047,-0.92969 1.23047,-2.40625c0,-1.42187 -0.41016,-2.35156 -1.23047,-2.35156c-0.70312,0 -1.23047,0.82031 -1.23047,2.40625zm0,0"/>
  </g>
 </g>

</svg>